<svg width="129" height="41" viewBox="0 0 129 41" fill="none" xmlns="http://www.w3.org/2000/svg">
<path fill-rule="evenodd" clip-rule="evenodd" d="M45.1289 14.6133C44.3086 16.2539 43.8984 18.1289 43.8984 20.2383L43.918 21.3516C44.0612 24.4375 45.0443 26.8854 46.8672 28.6953C48.6901 30.4922 51.1055 31.3906 54.1133 31.3906C57.2383 31.3906 59.7122 30.4271 61.5352 28.5C63.3711 26.5599 64.2891 23.9427 64.2891 20.6484V20.4141C64.2891 17.0417 63.3776 14.3789 61.5547 12.4258C59.7318 10.4596 57.2383 9.47656 54.0742 9.47656C52.0039 9.47656 50.2005 9.91927 48.6641 10.8047C47.1276 11.6901 45.9492 12.9596 45.1289 14.6133ZM51.3984 24.9453C50.7865 24.0339 50.4805 22.6016 50.4805 20.6484L50.5 19.457C50.6823 16.1888 51.8737 14.5547 54.0742 14.5547C56.4961 14.5547 57.707 16.4492 57.707 20.2383V20.9023C57.6549 24.5091 56.457 26.3125 54.1133 26.3125C52.9154 26.3125 52.0104 25.8568 51.3984 24.9453ZM67.5898 14.6133C66.7695 16.2539 66.3594 18.1289 66.3594 20.2383L66.3789 21.3516C66.5221 24.4375 67.5052 26.8854 69.3281 28.6953C71.151 30.4922 73.5664 31.3906 76.5742 31.3906C79.6992 31.3906 82.1732 30.4271 83.9961 28.5C85.832 26.5599 86.75 23.9427 86.75 20.6484V20.4141C86.75 17.0417 85.8385 14.3789 84.0156 12.4258C82.1927 10.4596 79.6992 9.47656 76.5352 9.47656C74.4648 9.47656 72.6615 9.91927 71.125 10.8047C69.5885 11.6901 68.4102 12.9596 67.5898 14.6133ZM73.8594 24.9453C73.2474 24.0339 72.9414 22.6016 72.9414 20.6484L72.9609 19.457C73.1432 16.1888 74.3346 14.5547 76.5352 14.5547C78.957 14.5547 80.168 16.4492 80.168 20.2383V20.9023C80.1159 24.5091 78.918 26.3125 76.5742 26.3125C75.3763 26.3125 74.4714 25.8568 73.8594 24.9453ZM96.2812 24.9844L98.1367 23.1289L102.746 31H110.285L102.395 18.5586L109.797 9.86719H101.906L96.9453 16.0391L96.2812 16.918V0.980469H89.6992V31H96.2812V24.9844ZM121.711 23.7148C122.297 24.0534 122.59 24.5026 122.59 25.0625C122.59 25.6484 122.362 26.1237 121.906 26.4883C121.464 26.8529 120.793 27.0352 119.895 27.0352C118.918 27.0352 118.117 26.8138 117.492 26.3711C116.867 25.9154 116.542 25.1992 116.516 24.2227H110.363C110.363 25.4596 110.76 26.638 111.555 27.7578C112.349 28.8776 113.456 29.763 114.875 30.4141C116.294 31.0651 117.909 31.3906 119.719 31.3906C122.44 31.3906 124.654 30.7852 126.359 29.5742C128.078 28.3633 128.938 26.7943 128.938 24.8672C128.938 22.0417 127.349 20.082 124.172 18.9883C123.221 18.6628 122.115 18.3828 120.852 18.1484C119.602 17.9141 118.69 17.6146 118.117 17.25C117.544 16.8854 117.258 16.4102 117.258 15.8242C117.258 15.2513 117.492 14.776 117.961 14.3984C118.43 14.0078 119.009 13.8125 119.699 13.8125C121.483 13.8125 122.375 14.6589 122.375 16.3516H128.977C128.977 14.2943 128.13 12.6341 126.438 11.3711C124.745 10.1081 122.505 9.47656 119.719 9.47656C117.128 9.47656 115.031 10.1081 113.43 11.3711C111.828 12.6211 111.027 14.2161 111.027 16.1562C111.027 17.25 111.307 18.2201 111.867 19.0664C112.427 19.9128 113.241 20.6354 114.309 21.2344C115.376 21.8203 116.73 22.2956 118.371 22.6602C120.012 23.0247 121.125 23.3763 121.711 23.7148ZM40 29.9888L20.117 41L0 29.9888V10.6629L17.7778 1L24.5614 5.49438L27.8363 3.92135L40 10.6629V29.9888ZM20.117 36.2809L35.7895 27.2921V15.1573L20.117 23.4719L4.44444 15.1573V27.2921L20.117 36.2809ZM20.117 18.7528L32.9825 11.3371L28.3041 8.64045L15.2047 16.0562L20.117 18.7528ZM10.9942 13.5843L6.54971 11.3371L17.5439 5.49438L21.2866 7.74157L10.9942 13.5843Z" fill="white"/>
</svg>
